<mxfile host="app.diagrams.net" modified="2023-12-02T12:26:14.074Z" agent="Mozilla/5.0 (X11; Ubuntu; Linux x86_64; rv:109.0) Gecko/20100101 Firefox/119.0" etag="OfdV8jslwhErxm-aP-S2" version="22.1.5" type="github">
  <diagram id="C5RBs43oDa-KdzZeNtuy" name="Page-1">
    <mxGraphModel dx="929" dy="3157" grid="1" gridSize="10" guides="1" tooltips="1" connect="1" arrows="1" fold="1" page="1" pageScale="1" pageWidth="827" pageHeight="1169" math="0" shadow="0">
      <root>
        <mxCell id="WIyWlLk6GJQsqaUBKTNV-0" />
        <mxCell id="WIyWlLk6GJQsqaUBKTNV-1" parent="WIyWlLk6GJQsqaUBKTNV-0" />
        <mxCell id="GnlaAtMcbr-nOltD3uFB-0" value="" style="ellipse;whiteSpace=wrap;html=1;fontSize=12;container=0;strokeWidth=3;" vertex="1" parent="WIyWlLk6GJQsqaUBKTNV-1">
          <mxGeometry x="3228.9431448144014" y="-630" width="168.65449099888485" height="154.76923076923077" as="geometry" />
        </mxCell>
        <mxCell id="GnlaAtMcbr-nOltD3uFB-1" style="edgeStyle=orthogonalEdgeStyle;rounded=0;orthogonalLoop=1;jettySize=auto;html=1;entryX=0.5;entryY=0;entryDx=0;entryDy=0;entryPerimeter=0;fontSize=12;strokeWidth=3;" edge="1" parent="WIyWlLk6GJQsqaUBKTNV-1" source="GnlaAtMcbr-nOltD3uFB-0" target="GnlaAtMcbr-nOltD3uFB-6">
          <mxGeometry relative="1" as="geometry">
            <mxPoint x="3311.78" y="-378.5207100591713" as="targetPoint" />
          </mxGeometry>
        </mxCell>
        <mxCell id="GnlaAtMcbr-nOltD3uFB-2" value="&lt;div style=&quot;font-size: 30px;&quot;&gt;&lt;font style=&quot;font-size: 30px;&quot;&gt;selection_sort_first(arr)&lt;/font&gt;&lt;/div&gt;&lt;div style=&quot;font-size: 30px;&quot;&gt;&lt;font style=&quot;font-size: 30px;&quot;&gt;selection_sort_last(arr)&lt;/font&gt;&lt;/div&gt;&lt;font style=&quot;font-size: 30px;&quot;&gt;&amp;nbsp;selection_sort_middle(arr)&lt;/font&gt;" style="shape=process;whiteSpace=wrap;html=1;backgroundOutline=1;container=0;fontSize=12;strokeWidth=3;" vertex="1" parent="WIyWlLk6GJQsqaUBKTNV-1">
          <mxGeometry x="3010" y="-123.16863905325431" width="603.5600000000002" height="222.4585798816568" as="geometry" />
        </mxCell>
        <mxCell id="GnlaAtMcbr-nOltD3uFB-3" value="&lt;font style=&quot;font-size: 30px;&quot;&gt;arr&lt;/font&gt;" style="shape=document;whiteSpace=wrap;html=1;boundedLbl=1;container=0;fontSize=12;strokeWidth=3;" vertex="1" parent="WIyWlLk6GJQsqaUBKTNV-1">
          <mxGeometry x="3160.8900000000003" y="216.328402366864" width="301.7800000000001" height="134.4408284023669" as="geometry" />
        </mxCell>
        <mxCell id="GnlaAtMcbr-nOltD3uFB-4" style="edgeStyle=orthogonalEdgeStyle;rounded=0;orthogonalLoop=1;jettySize=auto;html=1;entryX=0.5;entryY=0;entryDx=0;entryDy=0;fontSize=12;strokeWidth=3;" edge="1" parent="WIyWlLk6GJQsqaUBKTNV-1" source="GnlaAtMcbr-nOltD3uFB-2" target="GnlaAtMcbr-nOltD3uFB-3">
          <mxGeometry relative="1" as="geometry">
            <mxPoint x="3311.78" y="225.02958579881647" as="targetPoint" />
          </mxGeometry>
        </mxCell>
        <mxCell id="GnlaAtMcbr-nOltD3uFB-5" style="edgeStyle=orthogonalEdgeStyle;rounded=0;orthogonalLoop=1;jettySize=auto;html=1;exitX=0.5;exitY=1;exitDx=0;exitDy=0;exitPerimeter=0;entryX=0.5;entryY=0;entryDx=0;entryDy=0;fontSize=12;strokeWidth=3;" edge="1" parent="WIyWlLk6GJQsqaUBKTNV-1" source="GnlaAtMcbr-nOltD3uFB-6" target="GnlaAtMcbr-nOltD3uFB-2">
          <mxGeometry relative="1" as="geometry" />
        </mxCell>
        <mxCell id="GnlaAtMcbr-nOltD3uFB-6" value="&lt;font style=&quot;font-size: 30px;&quot;&gt;arr = list(map(int,input( ).split()))&lt;/font&gt;" style="shape=card;whiteSpace=wrap;html=1;container=0;fontSize=12;strokeWidth=3;" vertex="1" parent="WIyWlLk6GJQsqaUBKTNV-1">
          <mxGeometry x="3063.2694344432043" y="-380" width="500.00191174127775" height="127.78846153846155" as="geometry" />
        </mxCell>
        <mxCell id="GnlaAtMcbr-nOltD3uFB-7" value="" style="ellipse;whiteSpace=wrap;html=1;container=0;fontSize=12;strokeWidth=3;" vertex="1" parent="WIyWlLk6GJQsqaUBKTNV-1">
          <mxGeometry x="3225.3469772184167" y="463.69230769230785" width="175.82759534809625" height="156.30769230769232" as="geometry" />
        </mxCell>
        <mxCell id="GnlaAtMcbr-nOltD3uFB-8" value="" style="endArrow=none;html=1;rounded=0;entryX=1;entryY=0;entryDx=0;entryDy=0;exitX=0;exitY=1;exitDx=0;exitDy=0;fontSize=12;strokeWidth=3;" edge="1" parent="WIyWlLk6GJQsqaUBKTNV-1" source="GnlaAtMcbr-nOltD3uFB-7" target="GnlaAtMcbr-nOltD3uFB-7">
          <mxGeometry width="50" height="50" relative="1" as="geometry">
            <mxPoint x="3654.826429970221" y="595.8488529014846" as="sourcePoint" />
            <mxPoint x="3820.011972794451" y="430.65991902834" as="targetPoint" />
          </mxGeometry>
        </mxCell>
        <mxCell id="GnlaAtMcbr-nOltD3uFB-9" value="" style="endArrow=none;html=1;rounded=0;entryX=0;entryY=0;entryDx=0;entryDy=0;exitX=1;exitY=1;exitDx=0;exitDy=0;fontSize=12;strokeWidth=3;" edge="1" parent="WIyWlLk6GJQsqaUBKTNV-1" source="GnlaAtMcbr-nOltD3uFB-7" target="GnlaAtMcbr-nOltD3uFB-7">
          <mxGeometry width="50" height="50" relative="1" as="geometry">
            <mxPoint x="3654.826429970221" y="595.8488529014846" as="sourcePoint" />
            <mxPoint x="3820.011972794451" y="430.65991902834" as="targetPoint" />
          </mxGeometry>
        </mxCell>
        <mxCell id="GnlaAtMcbr-nOltD3uFB-10" style="edgeStyle=orthogonalEdgeStyle;rounded=0;orthogonalLoop=1;jettySize=auto;html=1;fontSize=12;strokeWidth=3;" edge="1" parent="WIyWlLk6GJQsqaUBKTNV-1" target="GnlaAtMcbr-nOltD3uFB-7">
          <mxGeometry relative="1" as="geometry">
            <mxPoint x="3312.5107720248525" y="463.69770580296904" as="targetPoint" />
            <mxPoint x="3312.4557018842233" y="331.5465587044541" as="sourcePoint" />
          </mxGeometry>
        </mxCell>
      </root>
    </mxGraphModel>
  </diagram>
</mxfile>
